<svg width="1500" height="500" viewBox="0 0 1500 500" fill="none" xmlns="http://www.w3.org/2000/svg">
<g clip-path="url(#clip0_1_3)">
<rect width="1500" height="500" fill="#05386B"/>
<path d="M395 528.5L-77 141V528.5H395Z" fill="#8EE4AF"/>
<path d="M395 582.5L-77 195V582.5H395Z" fill="#5CDB95"/>
<path d="M395.5 646L-76.5 258.5V646H395.5Z" fill="#379683"/>
<path d="M1076.42 -38.4997L1548.42 349L1548.42 -38.4997L1076.42 -38.4997Z" fill="#8EE4AF"/>
<path d="M1076.46 -92.4997L1548.46 295L1548.46 -92.4997L1076.46 -92.4997Z" fill="#5CDB95"/>
<path d="M1076 -156L1548 231.5L1548 -156L1076 -156Z" fill="#379683"/>
<path d="M470.248 194.5H456.748V247H470.248V194.5ZM493.92 193H480.42L481.47 217H492.87L493.92 193ZM580.742 202.075C569.792 202.075 561.917 205.9 556.217 210.175C552.842 204.025 546.542 202.075 539.867 202.075C528.917 202.075 521.717 206.2 516.917 210.025V202.825H504.092V247H516.917V220.975C520.592 217 527.792 213.175 535.217 213.175C544.367 213.175 545.942 218.05 545.942 227.425V247H558.767L558.917 222.25C558.917 221.425 558.917 220.675 558.842 219.925C562.742 216.4 569.342 213.175 576.092 213.175C585.242 213.175 586.817 218.05 586.817 227.425V247H599.642L599.792 222.25C599.642 206.275 590.642 202.075 580.742 202.075ZM704.292 194.5V215.05H661.542V194.5H648.042V247H661.542V226.45H704.292V247H717.792V194.5H704.292ZM757.231 202.075C748.006 202.075 739.156 203.725 730.156 206.65L734.731 216.025C743.806 213.325 750.856 212.8 756.631 212.8C762.631 212.8 773.431 213.475 773.431 221.875C767.656 219.925 760.681 218.725 753.106 218.725C739.081 218.725 726.481 222.325 726.481 233.8C726.481 243.775 734.206 247.75 746.581 247.75C757.006 247.75 765.631 245.35 773.431 241.525V247H786.331V224.725C786.181 208 775.681 202.075 757.231 202.075ZM773.431 233.275C766.831 236.125 757.231 238.3 750.256 238.3C743.581 238.3 739.306 237.925 739.306 233.275C739.306 228.775 745.081 227.125 754.681 227.125C762.856 227.125 768.931 228.4 773.431 229.825V233.275ZM872.451 202.075C861.501 202.075 853.626 205.9 847.926 210.175C844.551 204.025 838.251 202.075 831.576 202.075C820.626 202.075 813.426 206.2 808.626 210.025V202.825H795.801V247H808.626V220.975C812.301 217 819.501 213.175 826.926 213.175C836.076 213.175 837.651 218.05 837.651 227.425V247H850.476L850.626 222.25C850.626 221.425 850.626 220.675 850.551 219.925C854.451 216.4 861.051 213.175 867.801 213.175C876.951 213.175 878.526 218.05 878.526 227.425V247H891.351L891.501 222.25C891.351 206.275 882.351 202.075 872.451 202.075ZM952.528 202.825H900.478V213.55H933.553L900.478 236.275V247H952.528V236.275H919.453L952.528 213.55V202.825ZM991.138 202.075C981.913 202.075 973.063 203.725 964.063 206.65L968.638 216.025C977.713 213.325 984.763 212.8 990.538 212.8C996.538 212.8 1007.34 213.475 1007.34 221.875C1001.56 219.925 994.588 218.725 987.013 218.725C972.988 218.725 960.388 222.325 960.388 233.8C960.388 243.775 968.113 247.75 980.488 247.75C990.913 247.75 999.538 245.35 1007.34 241.525V247H1020.24V224.725C1020.09 208 1009.59 202.075 991.138 202.075ZM1007.34 233.275C1000.74 236.125 991.138 238.3 984.163 238.3C977.488 238.3 973.213 237.925 973.213 233.275C973.213 228.775 978.988 227.125 988.588 227.125C996.763 227.125 1002.84 228.4 1007.34 229.825V233.275ZM1030.44 236.95V247H1043.26V236.95H1030.44Z" fill="#EDF5E1"/>
<path d="M310.932 265.5V304.95L275.082 265.5H256.782V318H270.282V278.625L306.057 318H324.432V265.5H310.932ZM334.653 258V269.175H347.478V258H334.653ZM334.653 273.825V318H347.478V273.825H334.653ZM356.11 295.95C356.11 312.15 368.41 318.75 386.71 318.75C403.21 318.75 414.835 313.35 416.935 300.375H403.81C402.085 306.075 396.01 308.025 386.71 308.025C375.685 308.025 368.935 305.1 368.935 295.95C368.935 286.725 375.685 283.8 386.71 283.8C396.01 283.8 402.085 285.75 403.81 291.45H416.935C414.835 278.475 403.21 273.075 386.71 273.075C368.41 273.075 356.11 279.675 356.11 295.95ZM454.237 308.325C445.687 308.325 438.937 306 437.512 298.95H485.212C485.212 278.85 471.787 273.075 454.987 273.075C437.062 273.075 424.387 279.675 424.387 295.95C424.387 312.15 437.437 318.75 454.237 318.75C470.587 318.75 481.537 313.425 484.462 302.175H471.712C468.487 306.675 463.087 308.325 454.237 308.325ZM454.912 282.825C463.012 282.825 469.312 284.55 471.487 290.775H437.962C439.987 284.55 446.137 282.825 454.912 282.825ZM577.385 284.55V273.825H556.46V261L543.56 264.675V273.825H531.935V284.55H543.56V304.725C543.56 314.475 550.91 318.75 562.31 318.75C568.235 318.75 573.11 318.375 577.385 317.625V307.275C572.21 308.025 569.96 308.025 565.91 308.025C558.11 308.025 556.46 305.85 556.46 297.3V284.55H577.385ZM614.918 318.75C633.143 318.75 645.518 312.15 645.518 295.95C645.518 279.675 633.143 273.075 614.918 273.075C596.618 273.075 584.318 279.675 584.318 295.95C584.318 312.15 596.618 318.75 614.918 318.75ZM614.918 308.025C602.993 308.025 597.143 305.1 597.143 295.95C597.143 286.725 602.993 283.8 614.918 283.8C626.768 283.8 632.618 286.725 632.618 295.95C632.618 305.1 626.768 308.025 614.918 308.025ZM769.633 273.075C758.683 273.075 750.808 276.9 745.108 281.175C741.733 275.025 735.433 273.075 728.758 273.075C717.808 273.075 710.608 277.2 705.808 281.025V273.825H692.983V318H705.808V291.975C709.483 288 716.683 284.175 724.108 284.175C733.258 284.175 734.833 289.05 734.833 298.425V318H747.658L747.808 293.25C747.808 292.425 747.808 291.675 747.733 290.925C751.633 287.4 758.233 284.175 764.983 284.175C774.133 284.175 775.708 289.05 775.708 298.425V318H788.533L788.683 293.25C788.533 277.275 779.533 273.075 769.633 273.075ZM826.834 308.325C818.284 308.325 811.534 306 810.109 298.95H857.809C857.809 278.85 844.384 273.075 827.584 273.075C809.659 273.075 796.984 279.675 796.984 295.95C796.984 312.15 810.034 318.75 826.834 318.75C843.184 318.75 854.134 313.425 857.059 302.175H844.309C841.084 306.675 835.684 308.325 826.834 308.325ZM827.509 282.825C835.609 282.825 841.909 284.55 844.084 290.775H810.559C812.584 284.55 818.734 282.825 827.509 282.825ZM895.111 308.325C886.561 308.325 879.811 306 878.386 298.95H926.086C926.086 278.85 912.661 273.075 895.861 273.075C877.936 273.075 865.261 279.675 865.261 295.95C865.261 312.15 878.311 318.75 895.111 318.75C911.461 318.75 922.411 313.425 925.336 302.175H912.586C909.361 306.675 903.961 308.325 895.111 308.325ZM895.786 282.825C903.886 282.825 910.186 284.55 912.361 290.775H878.836C880.861 284.55 887.011 282.825 895.786 282.825ZM976.204 284.55V273.825H955.279V261L942.379 264.675V273.825H930.754V284.55H942.379V304.725C942.379 314.475 949.729 318.75 961.129 318.75C967.054 318.75 971.929 318.375 976.204 317.625V307.275C971.029 308.025 968.779 308.025 964.729 308.025C956.929 308.025 955.279 305.85 955.279 297.3V284.55H976.204ZM1073.32 273.825L1056.07 310.275L1037.17 273.825H1022.92L1045.8 318H1052.4L1043.47 336.75H1057.65L1087.5 273.825H1073.32ZM1119.53 318.75C1137.75 318.75 1150.13 312.15 1150.13 295.95C1150.13 279.675 1137.75 273.075 1119.53 273.075C1101.23 273.075 1088.93 279.675 1088.93 295.95C1088.93 312.15 1101.23 318.75 1119.53 318.75ZM1119.53 308.025C1107.6 308.025 1101.75 305.1 1101.75 295.95C1101.75 286.725 1107.6 283.8 1119.53 283.8C1131.38 283.8 1137.23 286.725 1137.23 295.95C1137.23 305.1 1131.38 308.025 1119.53 308.025ZM1207.36 273.825V298.575C1203.38 303.225 1194.08 307.65 1185.46 307.65C1174.88 307.65 1171.73 302.775 1171.73 293.4V273.825H1158.83L1158.68 298.275C1158.83 314.55 1169.86 318.75 1181.63 318.75C1192.36 318.75 1201.06 315.225 1207.36 310.275V318H1220.18V273.825H1207.36ZM1230.41 307.95V318H1243.23V307.95H1230.41Z" fill="#EDF5E1"/>
</g>
<defs>
<clipPath id="clip0_1_3">
<rect width="1500" height="500" fill="white"/>
</clipPath>
</defs>
</svg>
